<?xml version="1.0" encoding="UTF-8" standalone="no"?>
<!-- Created with Inkscape (http://www.inkscape.org/) -->

<svg
   width="192.35048mm"
   height="157.2272mm"
   viewBox="0 0 192.35048 157.2272"
   version="1.1"
   id="svg1"
   inkscape:version="1.4.2 (f4327f4, 2025-05-13)"
   sodipodi:docname="inomeado.svg"
   xmlns:inkscape="http://www.inkscape.org/namespaces/inkscape"
   xmlns:sodipodi="http://sodipodi.sourceforge.net/DTD/sodipodi-0.dtd"
   xmlns="http://www.w3.org/2000/svg"
   xmlns:svg="http://www.w3.org/2000/svg">
  <sodipodi:namedview
     id="namedview1"
     pagecolor="#505050"
     bordercolor="#eeeeee"
     borderopacity="1"
     inkscape:showpageshadow="0"
     inkscape:pageopacity="0"
     inkscape:pagecheckerboard="0"
     inkscape:deskcolor="#505050"
     inkscape:document-units="mm"
     inkscape:zoom="0.71891835"
     inkscape:cx="360.26344"
     inkscape:cy="284.45511"
     inkscape:window-width="1920"
     inkscape:window-height="1009"
     inkscape:window-x="1912"
     inkscape:window-y="-2"
     inkscape:window-maximized="1"
     inkscape:current-layer="layer1" />
  <defs
     id="defs1" />
  <g
     inkscape:label="Camada 1"
     inkscape:groupmode="layer"
     id="layer1"
     transform="translate(-9.5328914,-73.160323)">
    <g
       id="OBJECTS"
       transform="matrix(0.4807392,0,0,0.4807392,-15.382379,32.658526)">
	<g
   id="g109">
		<circle
   style="fill:#e5f1ff"
   cx="366.121"
   cy="170.069"
   r="85.82"
   id="circle1" />

		
			<circle
   transform="matrix(0.7071,-0.7071,0.7071,0.7071,-205.715,205.3315)"
   style="fill:#e5f1ff"
   cx="144.99899"
   cy="350.98599"
   id="ellipse1"
   r="50.16" />

		<g
   id="g108">
			<path
   style="fill:#a9ccea"
   d="m 144.33,112.859 c -25.326,0 -45.856,20.531 -45.856,45.857 0,25.326 20.531,45.857 45.856,45.857 25.326,0 45.857,-20.531 45.857,-45.857 -0.001,-25.326 -20.532,-45.857 -45.857,-45.857 z m 0,75.175 c -16.192,0 -29.318,-13.126 -29.318,-29.318 0,-16.192 13.126,-29.318 29.318,-29.318 16.192,0 29.318,13.126 29.318,29.318 0,16.192 -13.127,29.318 -29.318,29.318 z"
   id="path1" />

			<path
   style="fill:#0f3157"
   d="m 317.577,406.04 c 0,2.906 -2.356,5.262 -5.262,5.262 H 179.256 c -2.906,0 -5.262,-2.356 -5.262,-5.262 0,-2.906 2.356,-5.262 5.262,-5.262 h 47.235 l 6.515,-12.028 h 11.276 3.007 11.276 l 6.515,12.028 h 47.235 c 2.906,0 5.262,2.356 5.262,5.262 z"
   id="path2" />

			<rect
   x="233.787"
   y="377.85001"
   style="fill:#ff4d6b"
   width="21.801001"
   height="6.3899999"
   id="rect2" />

			<rect
   x="233.787"
   y="367.32501"
   style="fill:#ff4d6b"
   width="21.801001"
   height="6.3899999"
   id="rect3" />

			
				<path
   style="fill:none;stroke:#ff4d6b;stroke-width:1.1276;stroke-linecap:round;stroke-linejoin:round;stroke-miterlimit:10;stroke-dasharray:0, 5.6381"
   d="m 418.264,345.701 c -3.792,1.456 -7.91,2.253 -12.214,2.253 -18.828,0 -34.092,-15.263 -34.092,-34.092 0,-18.829 15.263,-34.092 34.092,-34.092 18.828,0 34.091,15.263 34.091,34.092 0,5.045 -1.096,9.834 -3.062,14.142"
   id="path3" />

			<path
   style="fill:#289df2"
   d="m 322.004,153.811 h -5.443 c -1.13,-4.836 -3.032,-9.373 -5.579,-13.472 l 3.848,-3.848 c 1.659,-1.659 1.659,-4.349 0,-6.008 l -8.55,-8.55 c -1.659,-1.659 -4.349,-1.659 -6.008,0 l -3.848,3.847 c -4.098,-2.547 -8.635,-4.449 -13.471,-5.578 v -5.443 c 0,-2.346 -1.902,-4.248 -4.248,-4.248 h -12.091 c -2.346,0 -4.248,1.902 -4.248,4.248 v 5.443 c -4.836,1.129 -9.373,3.032 -13.472,5.578 l -3.848,-3.847 c -1.659,-1.659 -4.349,-1.659 -6.008,0 l -8.549,8.55 c -1.659,1.659 -1.659,4.349 0,6.008 l 3.848,3.848 c -2.547,4.098 -4.449,8.635 -5.579,13.472 h -5.443 c -2.346,0 -4.248,1.902 -4.248,4.248 v 12.091 c 0,2.346 1.902,4.248 4.248,4.248 h 5.443 c 1.129,4.836 3.032,9.373 5.578,13.472 l -3.847,3.848 c -1.659,1.659 -1.659,4.349 0,6.008 l 8.549,8.55 c 1.659,1.659 4.349,1.659 6.008,0 l 3.848,-3.847 c 4.098,2.547 8.635,4.449 13.472,5.579 v 5.443 c 0,2.346 1.902,4.248 4.248,4.248 h 12.091 c 2.346,0 4.248,-1.902 4.248,-4.248 v -5.443 c 4.836,-1.13 9.373,-3.032 13.472,-5.579 l 3.848,3.847 c 1.659,1.659 4.349,1.659 6.008,0 l 8.55,-8.55 c 1.659,-1.659 1.659,-4.349 0,-6.008 l -3.848,-3.848 c 2.547,-4.098 4.449,-8.635 5.579,-13.472 h 5.443 c 2.346,0 4.248,-1.902 4.248,-4.248 v -12.091 c -10e-4,-2.347 -1.903,-4.248 -4.249,-4.248 z m -49.344,31.861 c -11.911,0 -21.567,-9.656 -21.567,-21.568 0,-11.911 9.656,-21.567 21.567,-21.567 11.911,0 21.568,9.656 21.568,21.567 0,11.912 -9.656,21.568 -21.568,21.568 z"
   id="path4" />

			<path
   style="fill:#0f3775"
   d="m 96.011,364.453 c -6.333,0 -11.467,-5.134 -11.467,-11.468 V 173.522 c 0,-6.334 5.134,-11.468 11.468,-11.468 H 395.56 c 6.333,0 11.468,5.134 11.468,11.467 v 179.463 c 0,6.333 -5.134,11.468 -11.468,11.468 H 96.011 Z"
   id="path5" />

			<rect
   x="108.058"
   y="187.09399"
   style="fill:#284d89"
   width="33.264999"
   height="7.3299999"
   id="rect5" />

			<rect
   x="148.088"
   y="187.09399"
   style="fill:#284d89"
   width="33.264999"
   height="7.3299999"
   id="rect6" />

			<rect
   x="249.57401"
   y="187.09399"
   style="fill:#284d89"
   width="33.264999"
   height="7.3299999"
   id="rect7" />

			<rect
   x="351.06"
   y="187.09399"
   style="fill:#284d89"
   width="33.264999"
   height="7.3299999"
   id="rect8" />

			<rect
   x="185.86301"
   y="187.09399"
   style="fill:#ff4d6b"
   width="59.481998"
   height="7.3299999"
   id="rect9" />

			<rect
   x="286.785"
   y="187.09399"
   style="fill:#2889db"
   width="59.481998"
   height="7.3299999"
   id="rect10" />

			<rect
   x="108.246"
   y="181.26801"
   style="fill:#2889db"
   width="5.8260002"
   height="3.5710001"
   id="rect11" />

			<g
   id="g13">
				<rect
   x="108.246"
   y="200.438"
   style="fill:#ffffff"
   width="60.797001"
   height="3.5710001"
   id="rect12" />

				<rect
   x="108.246"
   y="206.73399"
   style="fill:#ffffff"
   width="18.042"
   height="3.5710001"
   id="rect13" />

			</g>

			<path
   style="fill:#284d89"
   d="m 172.614,338.759 h -56.381 c -4.204,0 -7.611,-3.408 -7.611,-7.611 v -102.05 c 0,-4.204 3.408,-7.611 7.611,-7.611 h 56.381 c 4.204,0 7.611,3.408 7.611,7.611 v 102.05 c 0,4.203 -3.407,7.611 -7.611,7.611 z"
   id="path13" />

			<g
   id="g16">
				<rect
   x="117.643"
   y="238.683"
   style="fill:#ffffff"
   width="23.962"
   height="3.665"
   id="rect14" />

				<rect
   x="117.643"
   y="246.858"
   style="fill:#ffffff"
   width="23.962"
   height="3.665"
   id="rect15" />

				<rect
   x="117.643"
   y="255.033"
   style="fill:#ffffff"
   width="23.962"
   height="3.665"
   id="rect16" />

			</g>

			<rect
   x="117.643"
   y="289.14401"
   style="fill:#ffffff"
   width="14.659"
   height="3.665"
   id="rect17" />

			<rect
   x="117.643"
   y="297.319"
   style="fill:#ffffff"
   width="14.659"
   height="3.665"
   id="rect18" />

			<rect
   x="142.826"
   y="297.319"
   style="fill:#ffffff"
   width="14.659"
   height="3.665"
   id="rect19" />

			<rect
   x="117.643"
   y="279.841"
   style="fill:#ffffff"
   width="9.2089996"
   height="3.665"
   id="rect20" />

			<rect
   x="157.10899"
   y="279.841"
   style="fill:#ffffff"
   width="4.8860002"
   height="3.665"
   id="rect21" />

			<rect
   x="130.04601"
   y="279.841"
   style="fill:#ff4d6b"
   width="25.184"
   height="3.665"
   id="rect22" />

			<rect
   x="117.643"
   y="266.02802"
   style="fill:#2889db"
   width="3.5239999"
   height="3.665"
   id="rect23" />

			<rect
   x="117.643"
   y="272.51099"
   style="fill:#ff4d6b"
   width="3.5239999"
   height="3.665"
   id="rect24" />

			<polygon
   style="fill:#ffffff"
   points="139.02,297.037 140.336,297.037 137.188,301.736 135.872,301.736 "
   id="polygon24" />

			<rect
   x="117.643"
   y="308.03101"
   style="fill:#282e5c"
   width="54.408001"
   height="3.1010001"
   id="rect25" />

			<rect
   x="117.643"
   y="315.07901"
   style="fill:#282e5c"
   width="54.408001"
   height="3.1010001"
   id="rect26" />

			<path
   style="fill:#289df2"
   d="M 433.752,269.974 H 284.154 c -3.737,0 -6.766,-3.029 -6.766,-6.766 v -40.594 c 0,-3.737 3.029,-6.766 6.766,-6.766 h 149.598 c 3.737,0 6.766,3.029 6.766,6.766 v 40.594 c -10e-4,3.737 -3.03,6.766 -6.766,6.766 z"
   id="path26" />

			<path
   style="fill:none;stroke:#ffffff;stroke-width:1.1276;stroke-miterlimit:10"
   d="m 325.876,250.805 c 0,0 8.269,-20.297 31.949,-15.411 23.68,4.886 35.708,31.573 66.154,9.773"
   id="path27" />

			
				<rect
   x="399.17099"
   y="251.93201"
   style="fill:#289df2;stroke:#ffffff;stroke-width:1.1276;stroke-miterlimit:10"
   width="3.3829999"
   height="3.3829999"
   id="rect27" />

			
				<line
   style="fill:#289df2;stroke:#ffffff;stroke-width:0.5638;stroke-miterlimit:10"
   x1="330.01099"
   y1="234.45399"
   x2="372.85999"
   y2="234.45399"
   id="line27" />

			
				<line
   style="fill:#289df2;stroke:#ffffff;stroke-width:0.5638;stroke-miterlimit:10"
   x1="379.43799"
   y1="254.564"
   x2="422.28799"
   y2="254.564"
   id="line28" />

			
				<rect
   x="348.05301"
   y="232.763"
   style="fill:#289df2;stroke:#ffffff;stroke-width:1.1276;stroke-miterlimit:10"
   width="3.3829999"
   height="3.3829999"
   id="rect28" />

			<g
   id="g36">
				<path
   style="fill:#284d89"
   d="M 305.955,283.882 H 273.63 c -2.699,0 -4.886,-2.188 -4.886,-4.886 v -48.488 c 0,-2.699 2.188,-4.886 4.886,-4.886 h 32.325 c 2.699,0 4.886,2.188 4.886,4.886 v 48.488 c 0,2.698 -2.187,4.886 -4.886,4.886 z"
   id="path28" />

				<g
   id="g35">
					<g
   id="g31">
						<rect
   x="275.32101"
   y="233.89101"
   style="fill:#ffffff"
   width="23.962"
   height="3.3039999"
   id="rect29" />

						<rect
   x="275.32101"
   y="241.25999"
   style="fill:#ffffff"
   width="23.962"
   height="3.3039999"
   id="rect30" />

						<rect
   x="275.32101"
   y="248.63"
   style="fill:#ffffff"
   width="9.0209999"
   height="3.3039999"
   id="rect31" />

					</g>

					<g
   id="g34">
						<rect
   x="275.32101"
   y="256.254"
   style="fill:#289df2"
   width="15.599"
   height="3.3039999"
   id="rect32" />

						<rect
   x="275.32101"
   y="263.62399"
   style="fill:#289df2"
   width="10.524"
   height="3.3039999"
   id="rect33" />

						<rect
   x="275.32101"
   y="270.99301"
   style="fill:#ffffff"
   width="10.524"
   height="3.3039999"
   id="rect34" />

					</g>

				</g>

			</g>

			
				<line
   style="fill:none;stroke:#284d89;stroke-width:2.2552;stroke-linecap:round;stroke-linejoin:round;stroke-miterlimit:10"
   x1="414.20599"
   y1="208.519"
   x2="431.121"
   y2="208.519"
   id="line36" />

			<g
   id="g49">
				<path
   style="fill:none;stroke:#ff5c66;stroke-width:1.0152;stroke-miterlimit:10"
   d="m 376.202,303.958 -5.838,4.569 -8.376,1.523 c 0,0 -7.868,-0.508 -8.63,-0.508 -0.761,0 -6.091,-4.315 -6.091,-4.315 l -9.899,-3.553 -6.853,2.538 -8.122,-1.777 -12.183,-0.762 -11.675,4.569 -9.645,1.523 -8.63,2.792 -9.645,0.762 -10.406,-8.122 -9.645,-1.777 -9.899,5.584 -7.868,2.538 -8.933,-0.254 -11.258,6.853 h -6.713 l -11.337,3.976"
   id="path36" />

				<g
   id="g39">
					<g
   id="g38">
						
							<line
   style="fill:none;stroke:#f7f7f7;stroke-width:0.2538;stroke-miterlimit:10"
   x1="194.726"
   y1="320.28699"
   x2="376.45499"
   y2="320.28699"
   id="line37" />

						<rect
   x="192.95"
   y="318.00201"
   style="fill:#f7f7f7"
   width="1.8609999"
   height="4.5689998"
   id="rect37" />

						<rect
   x="375.35599"
   y="318.00201"
   style="fill:#f7f7f7"
   width="1.8609999"
   height="4.5689998"
   id="rect38" />

					</g>

					<path
   style="fill:none;stroke:#f7f7f7;stroke-width:0.5076;stroke-miterlimit:10"
   d="M 194.726,320.287"
   id="path38" />

				</g>

				
					<line
   style="fill:none;stroke:#f7f7f7;stroke-width:0.2538;stroke-miterlimit:10"
   x1="376.28601"
   y1="320.28699"
   x2="376.28601"
   y2="304.97299"
   id="line39" />

				<path
   style="fill:#f7f7f7"
   d="m 377.301,304.212 c 0,0.794 -0.644,1.438 -1.438,1.438 -0.794,0 -1.438,-0.644 -1.438,-1.438 0,-0.794 0.644,-1.438 1.438,-1.438 0.794,0 1.438,0.644 1.438,1.438 z"
   id="path39" />

				
					<text
   transform="translate(194.9795,331.0042)"
   style="font-size:8.122px;font-family:BebasNeueRegular;fill:#f7f7f7"
   id="text39">beta test</text>

				<rect
   x="236.69"
   y="326.88599"
   style="fill:#28385e"
   width="113.031"
   height="2.03"
   id="rect39" />

				<rect
   x="236.69"
   y="326.88599"
   style="fill:#ff4d6b"
   width="69.375"
   height="2.03"
   id="rect40" />

				<rect
   x="236.69"
   y="330.77701"
   style="fill:#28385e"
   width="55.584999"
   height="2.03"
   id="rect41" />

				<g
   id="g44">
					<polygon
   style="fill:#ff4d6b"
   points="195.361,338.096 200.183,338.096 201.452,336.827 208.305,336.827 209.194,334.923 195.361,334.923 "
   id="polygon41" />

					<rect
   x="214.894"
   y="334.90201"
   style="fill:#f7f7f7"
   width="0.76200002"
   height="0.76099998"
   id="rect42" />

					<rect
   x="219.621"
   y="334.90201"
   style="fill:#f7f7f7"
   width="0.76099998"
   height="0.76099998"
   id="rect43" />

					<rect
   x="224.34801"
   y="334.90201"
   style="fill:#f7f7f7"
   width="0.76200002"
   height="0.76099998"
   id="rect44" />

				</g>

				<text
   transform="translate(367.4004,299.137)"
   style="font-size:8.122px;font-family:BebasNeueBook;fill:#f7f7f7"
   id="text44">500</text>

				<g
   id="g48">
					<polygon
   style="fill:#28385e"
   points="353.443,326.886 355.135,326.886 357.843,332.977 356.15,332.977 "
   id="polygon44" />

					<polygon
   style="fill:#28385e"
   points="357.843,326.886 359.535,326.886 362.242,332.977 360.55,332.977 "
   id="polygon45" />

					<polygon
   style="fill:#28385e"
   points="362.242,326.886 363.934,326.886 366.641,332.977 364.949,332.977 "
   id="polygon46" />

					<polygon
   style="fill:#28385e"
   points="366.641,326.886 368.333,326.886 371.041,332.977 369.349,332.977 "
   id="polygon47" />

					<polygon
   style="fill:#28385e"
   points="370.956,326.886 372.648,326.886 375.356,332.977 373.663,332.977 "
   id="polygon48" />

				</g>

			</g>

			<g
   id="g53">
				<g
   id="g52">
					<rect
   x="340.49701"
   y="123.252"
   style="fill:#a9ccea"
   width="27.513"
   height="4.928"
   id="rect49" />

					<rect
   x="340.49701"
   y="132.07001"
   style="fill:#a9ccea"
   width="41.484001"
   height="4.927"
   id="rect50" />

					<rect
   x="340.49701"
   y="140.888"
   style="fill:#a9ccea"
   width="51.157001"
   height="4.928"
   id="rect51" />

					<rect
   x="340.49701"
   y="149.70599"
   style="fill:#a9ccea"
   width="19.559999"
   height="4.928"
   id="rect52" />

				</g>

			</g>

			<g
   id="g57">
				<g
   id="g56">
					<rect
   x="51.827"
   y="182.64"
   style="fill:#2889db"
   width="27.513"
   height="4.928"
   id="rect53" />

					<rect
   x="51.827"
   y="191.45799"
   style="fill:#a9ccea"
   width="41.484001"
   height="4.927"
   id="rect54" />

					<rect
   x="51.827"
   y="200.27499"
   style="fill:#a9ccea"
   width="51.157001"
   height="4.928"
   id="rect55" />

					<rect
   x="51.827"
   y="209.09399"
   style="fill:#a9ccea"
   width="19.559999"
   height="4.928"
   id="rect56" />

				</g>

			</g>

			
				<rect
   x="120.462"
   y="355.673"
   style="fill:none;stroke:#289df2;stroke-width:1.1276;stroke-miterlimit:10"
   width="117.272"
   height="15.223"
   id="rect57" />

			
				<rect
   x="177.03"
   y="235.77"
   style="fill:none;stroke:#289df2;stroke-width:1.1276;stroke-miterlimit:10"
   width="5.638"
   height="34.580002"
   id="rect58" />

			<g
   id="g61">
				
					<ellipse
   transform="matrix(0.9872,-0.1592,0.1592,0.9872,-44.7931,68.6549)"
   style="fill:#ff4d6b"
   cx="406.04999"
   cy="313.86301"
   rx="19.431999"
   ry="19.433001"
   id="ellipse58" />

				<g
   id="g60">
					<g
   id="g58">
						<path
   style="fill:#f9fbfc"
   d="m 404.642,312.04 -7.718,2.828 7.718,2.805 v 2.898 l -11.033,-4.196 v -3.013 l 11.033,-4.195 z"
   id="path58" />

					</g>

					<g
   id="g59">
						<path
   style="fill:#f9fbfc"
   d="m 407.163,309.166 11.033,4.195 v 3.013 l -11.033,4.196 v -2.898 l 7.718,-2.805 -7.718,-2.828 z"
   id="path59" />

					</g>

				</g>

			</g>

			<path
   style="fill:none;stroke:#ff4d6b;stroke-width:1.1276;stroke-miterlimit:10"
   d="m 438.45,329.738 c 0,1.401 -1.136,2.537 -2.537,2.537 -1.401,0 -2.537,-1.136 -2.537,-2.537 0,-1.401 1.136,-2.537 2.537,-2.537 1.401,0 2.537,1.136 2.537,2.537 z"
   id="path61" />

			
				<rect
   x="114.26"
   y="145.936"
   style="fill:none;stroke:#289df2;stroke-width:1.1276;stroke-miterlimit:10"
   width="91.901001"
   height="9.585"
   id="rect61" />

			<rect
   x="118.206"
   y="149.037"
   style="fill:#289df2"
   width="56.945"
   height="2.819"
   id="rect62" />

			<g
   id="g64">
				<rect
   x="192.44099"
   y="220.735"
   style="fill:#284d89"
   width="67.280998"
   height="3.3829999"
   id="rect63" />

				<rect
   x="192.44099"
   y="220.735"
   style="fill:#2889db"
   width="30.493"
   height="3.3829999"
   id="rect64" />

			</g>

			<g
   id="g66">
				<rect
   x="192.44099"
   y="229.474"
   style="fill:#284d89"
   width="67.280998"
   height="3.3829999"
   id="rect65" />

				<rect
   x="192.44099"
   y="229.474"
   style="fill:#ff4d6b"
   width="46.842999"
   height="3.3829999"
   id="rect66" />

			</g>

			<g
   id="g68">
				<rect
   x="192.44099"
   y="238.213"
   style="fill:#284d89"
   width="67.280998"
   height="3.3829999"
   id="rect67" />

				<rect
   x="192.44099"
   y="238.213"
   style="fill:#1ae5ff"
   width="13.719"
   height="3.3829999"
   id="rect68" />

			</g>

			<g
   id="g71">
				<rect
   x="192.72301"
   y="214.815"
   style="fill:#284d89"
   width="1.316"
   height="1.316"
   id="rect69" />

				<rect
   x="197.23399"
   y="214.815"
   style="fill:#284d89"
   width="1.316"
   height="1.316"
   id="rect70" />

				<rect
   x="201.744"
   y="214.815"
   style="fill:#284d89"
   width="1.316"
   height="1.316"
   id="rect71" />

			</g>

			<g
   id="g74">
				<rect
   x="317.92001"
   y="260.89099"
   style="fill:#ffffff"
   width="2.1919999"
   height="2.1930001"
   id="rect72" />

				<rect
   x="325.43799"
   y="260.89099"
   style="fill:#ffffff"
   width="2.1930001"
   height="2.1930001"
   id="rect73" />

				<rect
   x="332.95499"
   y="260.89099"
   style="fill:#ffffff"
   width="2.1930001"
   height="2.1930001"
   id="rect74" />

			</g>

			<g
   id="g77">
				<rect
   x="349.56799"
   y="173.763"
   style="fill:#ffffff"
   width="4.1110001"
   height="4.1110001"
   id="rect75" />

				<rect
   x="363.66299"
   y="173.763"
   style="fill:#ffffff"
   width="4.1110001"
   height="4.1110001"
   id="rect76" />

				<rect
   x="377.758"
   y="173.763"
   style="fill:#ffffff"
   width="4.1110001"
   height="4.1110001"
   id="rect77" />

			</g>

			<g
   id="g80">
				<rect
   x="291.30801"
   y="343.65701"
   style="fill:#ffffff"
   width="4.1110001"
   height="4.1110001"
   id="rect78" />

				<rect
   x="305.40302"
   y="343.65701"
   style="fill:#ffffff"
   width="4.1110001"
   height="4.1110001"
   id="rect79" />

				<rect
   x="319.49799"
   y="343.65701"
   style="fill:#ffffff"
   width="4.1110001"
   height="4.1110001"
   id="rect80" />

			</g>

			<g
   id="g83">
				<rect
   x="118.833"
   y="229.81799"
   style="fill:#ffffff"
   width="2.1919999"
   height="2.1930001"
   id="rect81" />

				<rect
   x="126.35"
   y="229.81799"
   style="fill:#ffffff"
   width="2.1930001"
   height="2.1930001"
   id="rect82" />

				<rect
   x="133.868"
   y="229.81799"
   style="fill:#ffffff"
   width="2.1930001"
   height="2.1930001"
   id="rect83" />

			</g>

			<g
   id="g85">
				<rect
   x="389.77499"
   y="227.125"
   style="fill:#ffffff"
   width="36.459999"
   height="3.5710001"
   id="rect84" />

				<rect
   x="389.77499"
   y="233.42101"
   style="fill:#287dd1"
   width="10.82"
   height="3.5710001"
   id="rect85" />

			</g>

			<polygon
   style="fill:#1ae5ff"
   points="87.761,241.784 95.654,241.784 95.654,234.454 87.761,234.454 87.761,226.561 80.431,226.561 80.431,234.454 72.538,234.454 72.538,241.784 80.431,241.784 80.431,249.677 87.761,249.677 "
   id="polygon85" />

			<polygon
   style="fill:#2889db"
   points="69.719,260.912 74.532,260.912 74.532,256.443 69.719,256.443 69.719,251.63 65.25,251.63 65.25,256.443 60.436,256.443 60.436,260.912 65.25,260.912 65.25,265.725 69.719,265.725 "
   id="polygon86" />

			<g
   id="g87">
				<path
   style="fill:#284d89"
   d="m 206.267,252.24 c -6.817,0 -12.344,5.527 -12.344,12.344 0,6.818 5.527,12.344 12.344,12.344 6.818,0 12.344,-5.527 12.344,-12.344 0,-6.817 -5.527,-12.344 -12.344,-12.344 z m 0,18.777 c -3.553,0 -6.432,-2.88 -6.432,-6.433 0,-3.553 2.88,-6.433 6.432,-6.433 3.553,0 6.433,2.88 6.433,6.433 0,3.553 -2.881,6.433 -6.433,6.433 z"
   id="path86" />

				<path
   style="fill:#289df2"
   d="m 197.864,263.367 c 1.147,0 2.152,-0.682 2.674,-1.704 1.063,-2.084 3.229,-3.512 5.729,-3.512 2.501,0 4.666,1.428 5.73,3.512 0.521,1.022 1.527,1.704 2.674,1.704 v 0 c 2.16,0 3.638,-2.263 2.688,-4.204 -2.007,-4.1 -6.219,-6.923 -11.091,-6.923 -4.872,0 -9.084,2.823 -11.091,6.924 -0.951,1.94 0.526,4.203 2.687,4.203 z"
   id="path87" />

			</g>

			<g
   id="g89">
				<path
   style="fill:#284d89"
   d="m 226.999,264.584 c 0,6.817 5.527,12.344 12.344,12.344 6.818,0 12.344,-5.527 12.344,-12.344 0,-6.818 -5.527,-12.344 -12.344,-12.344 -6.817,0 -12.344,5.527 -12.344,12.344 z m 18.777,0 c 0,3.552 -2.88,6.432 -6.433,6.432 -3.553,0 -6.433,-2.88 -6.433,-6.432 0,-3.553 2.88,-6.433 6.433,-6.433 3.553,0 6.433,2.88 6.433,6.433 z"
   id="path88" />

				<path
   style="fill:#ff4d6b"
   d="m 238.127,272.987 c 0,-1.147 -0.682,-2.152 -1.704,-2.674 -2.084,-1.063 -3.512,-3.229 -3.512,-5.729 0,-2.501 1.428,-4.666 3.512,-5.73 1.022,-0.521 1.704,-1.527 1.704,-2.674 v 0 c 0,-2.16 -2.263,-3.638 -4.204,-2.688 -4.1,2.007 -6.924,6.219 -6.924,11.092 0,4.872 2.824,9.084 6.924,11.091 1.94,0.95 4.204,-0.527 4.204,-2.688 z"
   id="path89" />

			</g>

			
				<rect
   x="148.464"
   y="215.849"
   style="fill:none;stroke:#289df2;stroke-width:1.1276;stroke-miterlimit:10"
   width="22.552"
   height="54.125999"
   id="rect89" />

			<g
   id="g93">
				<rect
   x="151.659"
   y="226.27901"
   style="fill:#1ae5ff"
   width="6.5780001"
   height="1.944"
   id="rect90" />

				<rect
   x="151.659"
   y="230.616"
   style="fill:#1ae5ff"
   width="6.5780001"
   height="1.944"
   id="rect91" />

				<rect
   x="151.659"
   y="234.953"
   style="fill:#1ae5ff"
   width="6.5780001"
   height="1.944"
   id="rect92" />

				<rect
   x="151.659"
   y="257.50601"
   style="fill:#1ae5ff"
   width="6.5780001"
   height="1.944"
   id="rect93" />

			</g>

			<g
   id="g96">
				<rect
   x="151.659"
   y="241.314"
   style="fill:#1ae5ff"
   width="9.585"
   height="1.944"
   id="rect94" />

				<rect
   x="151.659"
   y="245.651"
   style="fill:#ffffff"
   width="9.585"
   height="1.944"
   id="rect95" />

				<rect
   x="151.659"
   y="249.98801"
   style="fill:#ffffff"
   width="9.585"
   height="1.944"
   id="rect96" />

			</g>

			<rect
   x="67.651001"
   y="283.50601"
   style="fill:#289df2"
   width="28.566"
   height="28.566"
   id="rect97" />

			
				<rect
   x="52.617001"
   y="290.271"
   style="fill:none;stroke:#289df2;stroke-width:1.1276;stroke-miterlimit:10"
   width="28.566"
   height="28.566"
   id="rect98" />

			
				<rect
   x="407.44101"
   y="366.198"
   style="fill:none;stroke:#289df2;stroke-width:1.1276;stroke-miterlimit:10"
   width="12.028"
   height="12.028"
   id="rect99" />

			<g
   id="g100">
				<polyline
   style="fill:none;stroke:#ffffff;stroke-width:1.1276;stroke-miterlimit:10"
   points="263.105,347.216       273.254,347.216 278.892,352.854 337.528,352.854 346.549,343.833 378.123,343.833     "
   id="polyline99" />

				<circle
   style="fill:none;stroke:#ffffff;stroke-width:1.1276;stroke-miterlimit:10"
   cx="260.14499"
   cy="347.35699"
   r="2.96"
   id="circle99" />

				<circle
   style="fill:none;stroke:#ffffff;stroke-width:1.1276;stroke-miterlimit:10"
   cx="381.17599"
   cy="343.69199"
   r="2.96"
   id="circle100" />

			</g>

			<path
   style="fill:#289df2"
   d="m 420.972,188.034 c 0,2.076 -1.683,3.759 -3.759,3.759 -2.076,0 -3.759,-1.683 -3.759,-3.759 0,-2.076 1.683,-3.759 3.759,-3.759 2.076,0 3.759,1.683 3.759,3.759 z"
   id="path100" />

			<path
   style="fill:#ff4d6b"
   d="m 73.665,334.625 c 0,2.076 -1.683,3.759 -3.759,3.759 -2.076,0 -3.759,-1.683 -3.759,-3.759 0,-2.076 1.683,-3.759 3.759,-3.759 2.077,0 3.759,1.683 3.759,3.759 z"
   id="path101" />

			<path
   style="fill:#ff4d6b"
   d="m 90.956,348.532 c 0,3.633 -2.945,6.578 -6.578,6.578 -3.633,0 -6.578,-2.945 -6.578,-6.578 0,-3.633 2.945,-6.578 6.578,-6.578 3.633,0 6.578,2.945 6.578,6.578 z"
   id="path102" />

			<g
   id="g103">
				
					<rect
   x="288.66501"
   y="370.70801"
   style="fill:none;stroke:#289df2;stroke-width:1.1276;stroke-miterlimit:10"
   width="26.311001"
   height="6.0139999"
   id="rect102" />

				
					<rect
   x="288.66501"
   y="381.98401"
   style="fill:none;stroke:#289df2;stroke-width:1.1276;stroke-miterlimit:10"
   width="57.695999"
   height="6.0139999"
   id="rect103" />

			</g>

			<g
   id="g107">
				
					<line
   style="fill:none;stroke:#289df2;stroke-width:1.1276;stroke-linecap:round;stroke-linejoin:round;stroke-miterlimit:10"
   x1="127.481"
   y1="376.46799"
   x2="121.104"
   y2="382.845"
   id="line103" />

				
					<line
   style="fill:none;stroke:#289df2;stroke-width:1.1276;stroke-linecap:round;stroke-linejoin:round;stroke-miterlimit:10"
   x1="133.612"
   y1="376.46799"
   x2="127.235"
   y2="382.845"
   id="line104" />

				
					<line
   style="fill:none;stroke:#289df2;stroke-width:1.1276;stroke-linecap:round;stroke-linejoin:round;stroke-miterlimit:10"
   x1="139.744"
   y1="376.46799"
   x2="133.367"
   y2="382.845"
   id="line105" />

				
					<line
   style="fill:none;stroke:#289df2;stroke-width:1.1276;stroke-linecap:round;stroke-linejoin:round;stroke-miterlimit:10"
   x1="145.875"
   y1="376.46799"
   x2="139.498"
   y2="382.845"
   id="line106" />

				
					<line
   style="fill:none;stroke:#289df2;stroke-width:1.1276;stroke-linecap:round;stroke-linejoin:round;stroke-miterlimit:10"
   x1="152.007"
   y1="376.46799"
   x2="145.63"
   y2="382.845"
   id="line107" />

			</g>

		</g>

	</g>

</g>
  </g>
</svg>
