<?xml version="1.0" encoding="UTF-8" standalone="no"?>
<!-- Created with Inkscape (http://www.inkscape.org/) -->

<svg
   width="91.310432mm"
   height="91.307091mm"
   viewBox="0 0 91.310432 91.307091"
   version="1.1"
   id="svg1"
   xml:space="preserve"
   inkscape:version="1.4.2 (f4327f4, 2025-05-13)"
   sodipodi:docname="phone.svg"
   xmlns:inkscape="http://www.inkscape.org/namespaces/inkscape"
   xmlns:sodipodi="http://sodipodi.sourceforge.net/DTD/sodipodi-0.dtd"
   xmlns="http://www.w3.org/2000/svg"
   xmlns:svg="http://www.w3.org/2000/svg"><sodipodi:namedview
     id="namedview1"
     pagecolor="#505050"
     bordercolor="#eeeeee"
     borderopacity="1"
     inkscape:showpageshadow="0"
     inkscape:pageopacity="0"
     inkscape:pagecheckerboard="0"
     inkscape:deskcolor="#505050"
     inkscape:document-units="mm"
     showgrid="false"
     inkscape:zoom="0.71891835"
     inkscape:cx="173.17683"
     inkscape:cy="171.78585"
     inkscape:window-width="1920"
     inkscape:window-height="1009"
     inkscape:window-x="1912"
     inkscape:window-y="-2"
     inkscape:window-maximized="1"
     inkscape:current-layer="layer1" /><defs
     id="defs1" /><g
     inkscape:label="Camada 1"
     inkscape:groupmode="layer"
     id="layer1"
     transform="translate(-59.369592,-102.92292)"><path
       style="opacity:1;fill:#ffffff;fill-opacity:1;stroke:#ffffff;stroke-width:0;stroke-dasharray:none;stroke-opacity:1"
       d="m 99.615627,194.17148 c -8.801707,-1.29701 -15.751769,-4.10623 -22.254261,-8.99519 -8.982749,-6.75376 -15.243185,-16.87752 -17.48708,-28.27837 -0.680947,-3.45978 -0.670727,-12.97469 0.0179,-16.66875 1.166557,-6.25782 4.065417,-13.08035 7.841148,-18.45432 2.209495,-3.14476 7.369872,-8.29996 10.585212,-10.5746 5.022037,-3.55275 11.536623,-6.38193 17.690732,-7.6828 2.458411,-0.51966 3.595575,-0.59453 9.030302,-0.59453 6.86806,0 9.28819,0.33847 14.35712,2.00796 3.44817,1.13568 9.40395,4.1481 12.36579,6.25457 3.20555,2.27981 8.34685,7.42506 10.65129,10.6595 2.13068,2.99054 5.15287,8.96468 6.24974,12.35422 1.68559,5.20879 2.01631,7.54294 2.0165,14.23208 1.5e-4,5.28078 -0.0792,6.47714 -0.60045,9.04797 -3.69144,18.20792 -17.73752,32.31766 -35.92629,36.08912 -2.04746,0.42455 -3.86443,0.56499 -8.18766,0.63287 -3.05594,0.048 -5.91344,0.0346 -6.349998,-0.0297 z m 14.287503,-1.14921 c 18.28521,-3.91814 31.71599,-17.35085 35.59006,-35.59519 0.72742,-3.42569 0.99705,-10.64335 0.53537,-14.33119 -0.379,-3.02737 -1.54164,-7.82209 -2.54892,-10.51174 -1.10534,-2.95148 -3.66248,-7.73 -5.60593,-10.47576 -2.27789,-3.21827 -7.16419,-8.10394 -10.37897,-10.37761 -4.03545,-2.85411 -8.93635,-5.25153 -13.49057,-6.59931 -4.17507,-1.23558 -6.66596,-1.60324 -11.77396,-1.73785 -4.36663,-0.11508 -5.47897,-0.0559 -8.466666,0.45013 -6.737895,1.1413 -13.687432,3.99866 -19.179112,7.88567 -3.209031,2.27135 -8.095403,7.155 -10.38475,10.37897 -3.545193,4.99251 -6.228426,11.21104 -7.652423,17.73489 -0.530359,2.42976 -0.603342,3.49295 -0.598606,8.72026 0.0061,6.74625 0.337643,8.92278 2.22082,14.5799 5.30841,15.94661 19.116162,27.4869 36.221002,30.27291 3.467365,0.56476 12.056165,0.34657 15.512655,-0.39408 z m -0.1323,-21.32199 c -3.10174,-0.66573 -7.15182,-2.5084 -10.9802,-4.99569 -6.152246,-3.9971 -13.406097,-11.55654 -17.184455,-17.9084 -3.513036,-5.90582 -5.059572,-12.44728 -3.607377,-15.25829 0.27892,-0.53991 2.222912,-2.67829 4.319982,-4.75196 3.491866,-3.45291 3.893415,-3.77031 4.769785,-3.77031 0.620516,0 1.18885,0.20928 1.616629,0.59531 1.004399,0.90637 6.248975,11.03651 6.248975,12.07018 0,1.16831 -0.514514,2.05118 -2.095908,3.59644 -0.739021,0.72213 -1.343675,1.51715 -1.343675,1.76671 0,0.70058 1.662586,3.72683 2.98673,5.43645 1.463645,1.88974 5.665094,5.98359 7.492184,7.30032 1.46014,1.05227 3.95717,2.30075 4.60998,2.30492 0.22248,0.001 1.17074,-0.77051 2.10724,-1.71541 1.78224,-1.79823 2.99817,-2.41936 4.16356,-2.12686 1.08441,0.27217 10.83721,6.1515 11.29978,6.81191 0.22739,0.32465 0.41344,1.00104 0.41344,1.50308 0,0.81961 -0.38496,1.30212 -3.77031,4.72567 -2.07367,2.09707 -4.21206,4.04106 -4.75196,4.31998 -1.18164,0.61045 -3.71715,0.6491 -6.2944,0.0959 z m 6.02981,-0.62496 c 0.53991,-0.27883 2.61876,-2.1636 4.61967,-4.18838 3.935,-3.98194 4.19419,-4.4678 3.04271,-5.70366 -0.61275,-0.65766 -9.66731,-6.05665 -10.6962,-6.37786 -0.90757,-0.28334 -2.20076,0.44217 -3.91374,2.1957 -1.1155,1.14189 -1.77589,1.61583 -2.24896,1.61401 -0.88641,-0.003 -3.1967,-1.09543 -4.8752,-2.30436 -1.81899,-1.31012 -6.284609,-5.66581 -7.756397,-7.56547 -1.48379,-1.91514 -2.987104,-4.7631 -2.987104,-5.65891 0,-0.46889 0.527284,-1.23516 1.719792,-2.49928 1.364354,-1.44629 1.719791,-1.99475 1.719791,-2.65374 0,-0.96282 -5.25094,-11.18419 -6.126424,-11.92556 -1.154215,-0.9774 -1.687217,-0.67425 -5.582387,3.175 -2.024778,2.00092 -3.909551,4.07977 -4.188384,4.61967 -1.360232,2.63382 0.198587,8.99829 3.607534,14.72913 3.781851,6.35773 10.77964,13.65486 16.919869,17.64363 6.75717,4.38956 13.76392,6.43988 16.74543,4.90008 z"
       id="path1" /></g></svg>
