<?xml version="1.0" encoding="UTF-8" standalone="no"?>
<!-- Created with Inkscape (http://www.inkscape.org/) -->

<svg
   width="85.214348mm"
   height="171.18536mm"
   viewBox="0 0 85.214348 171.18536"
   version="1.1"
   id="svg1"
   xml:space="preserve"
   inkscape:version="1.4.2 (f4327f4, 2025-05-13)"
   sodipodi:docname="question_mark.svg"
   xmlns:inkscape="http://www.inkscape.org/namespaces/inkscape"
   xmlns:sodipodi="http://sodipodi.sourceforge.net/DTD/sodipodi-0.dtd"
   xmlns="http://www.w3.org/2000/svg"
   xmlns:svg="http://www.w3.org/2000/svg"><sodipodi:namedview
     id="namedview1"
     pagecolor="#505050"
     bordercolor="#eeeeee"
     borderopacity="1"
     inkscape:showpageshadow="0"
     inkscape:pageopacity="0"
     inkscape:pagecheckerboard="0"
     inkscape:deskcolor="#505050"
     inkscape:document-units="mm"
     inkscape:zoom="0.71891835"
     inkscape:cx="174.56781"
     inkscape:cy="317.8386"
     inkscape:window-width="1920"
     inkscape:window-height="1009"
     inkscape:window-x="1912"
     inkscape:window-y="-2"
     inkscape:window-maximized="1"
     inkscape:current-layer="layer1" /><defs
     id="defs1" /><g
     inkscape:label="Camada 1"
     inkscape:groupmode="layer"
     id="layer1"
     transform="translate(-58.835968,-64.310642)"><path
       style="fill:#ffffff;fill-opacity:1"
       d="m 100.30756,217.57055 0.068,-17.92552 0.68886,-0.08 c 0.53647,-0.0623 0.82631,-0.37345 1.31018,-1.40653 1.18875,-2.53803 3.25225,-3.79341 6.20305,-3.77378 2.6409,0.0176 4.21893,0.83159 5.41494,2.7933 0.65456,1.07363 0.71171,3.07966 0.12307,4.32013 -0.22831,0.48113 -1.76348,2.06876 -3.41149,3.52808 -3.33996,2.95753 -4.2072,4.29753 -4.52266,6.98805 l -0.17838,1.52135 h 2.01486 2.01486 l 0.001,-0.7276 c 0.004,-1.91017 0.46092,-2.58905 3.95651,-5.87686 2.44065,-2.29557 3.61142,-3.60333 4.09546,-4.57467 0.90901,-1.82415 0.91254,-3.70327 0.0105,-5.60995 -2.37751,-5.02564 -9.96146,-6.9317 -15.69318,-3.94413 -0.94961,0.49498 -1.82266,0.80385 -1.94012,0.6864 -0.11745,-0.11745 -0.24483,-4.52145 -0.28305,-9.78666 l -0.0695,-9.57311 -1.058862,0.98402 c -0.58237,0.54121 -1.89206,1.68908 -2.91041,2.55082 -3.11638,2.63711 -5.70006,5.2586 -6.27881,6.3707 -0.40042,0.76943 -0.62645,1.94309 -0.82802,4.29948 l -0.27724,3.24115 h -6.29019 -6.29068 l -0.17561,-0.6997 c -0.2917,-1.16221 0.14204,-6.98046 0.66776,-8.95759 1.19486,-4.49358 2.92273,-6.77138 9.02277,-11.89445 6.60361,-5.54598 7.2662,-6.42845 7.25995,-9.6691 -0.005,-2.34718 -0.5677,-3.60658 -2.34558,-5.24537 -2.98141,-2.74817 -8.33825,-3.34831 -12.45499,-1.39535 -2.81252,1.33423 -4.41067,3.3225 -5.66074,7.04253 -0.42543,1.26599 -0.87361,2.39633 -0.99596,2.51186 -0.21241,0.20055 -6.04906,-0.42344 -10.54122,-1.12697 l -2.11667,-0.33149 0.0853,-1.32292 c 0.53323,-8.26599 7.22289,-15.7984 16.12412,-18.15537 2.62912,-0.69617 9.84466,-0.97903 13.04333,-0.51132 4.0543,0.59281 8.56086,2.39594 11.01573,4.40753 l 1.138772,0.93313 v -10.34476 c 0,-8.82938 0.0566,-10.3665 0.38663,-10.49313 0.21264,-0.0816 1.84113,0.0399 3.61886,0.27 1.77773,0.23009 3.24992,0.38989 3.27154,0.3551 0.0216,-0.0348 0.37214,-0.99255 0.77893,-2.12836 0.82813,-2.31225 2.43553,-4.67462 4.05158,-5.95456 3.26205,-2.58359 8.28625,-3.32575 12.82344,-1.89424 5.19298,1.63842 8.04028,7.02681 6.24648,11.82117 -0.71996,1.92427 -2.30054,3.61322 -7.30327,7.80397 -7.17271,6.00854 -8.85846,8.88334 -9.23845,15.75491 l -0.1646,2.97656 h 4.79098 4.79099 l 0.13018,-0.8599 c 0.0716,-0.47294 0.19075,-1.65468 0.26477,-2.62609 0.24763,-3.24947 1.13909,-4.56113 5.93088,-8.72649 9.10006,-7.91041 11.34259,-11.0413 11.62504,-16.23023 0.20729,-3.80811 -0.97722,-7.40485 -3.43854,-10.44104 -1.4462,-1.78398 -4.57312,-4.30331 -6.62966,-5.34145 -3.65438,-1.84472 -8.58934,-2.77302 -13.47738,-2.53517 -6.9404,0.33771 -11.65028,2.31672 -15.9994,6.72266 -1.17083,1.18613 -2.07074,1.90263 -2.21211,1.76127 -0.13107,-0.13108 -0.27001,-3.54264 -0.30875,-7.58126 l -0.0704,-7.34293 -1.922452,1.75478 c -1.05735,0.96512 -2.06366,2.01128 -2.23625,2.32479 -0.17259,0.31352 -0.37905,1.52252 -0.4588,2.68668 l -0.145,2.11667 h -4.23333 -4.23333 l -0.0808,-1.85208 c -0.10556,-2.42095 0.34168,-4.90868 1.17979,-6.56262 0.69856,-1.37855 2.63016,-3.422702 6.38226,-6.754167 1.20154,-1.06684 2.37453,-2.306961 2.60665,-2.755824 0.50409,-0.974828 0.37366,-2.782617 -0.27186,-3.767813 -1.69063,-2.580227 -6.63363,-3.047478 -9.26792,-0.876077 -1.01747,0.838688 -2.07558,2.665928 -2.39261,4.131781 -0.10441,0.482776 -0.34546,0.937494 -0.53567,1.010484 -0.19021,0.07299 -2.11375,-0.08388 -4.27453,-0.348607 l -3.9287,-0.481317 -0.0833,-0.8654 c -0.21428,-2.225605 1.47463,-5.86657 3.79988,-8.191815 2.68744,-2.687445 6.90238,-4.304243 11.22102,-4.304243 2.2203,0 5.85735,0.69453 7.5446,1.440712 l 1.462612,0.646835 V 72.89504 c 0,-7.454187 0.0523,-8.584398 0.39688,-8.584398 0.34488,0 0.39687,1.162149 0.39687,8.871845 0,9.869599 0.0628,9.56129 -1.760282,8.64539 -2.54229,-1.277242 -3.75932,-1.509944 -7.89701,-1.509944 -3.68515,0 -4.11054,0.05247 -5.95312,0.734249 -4.39779,1.627249 -7.6619,5.291732 -8.41947,9.45221 -0.14574,0.800364 -0.21832,1.502478 -0.16129,1.560253 0.10706,0.108457 4.48068,0.704523 6.30502,0.859291 1.02009,0.08654 1.03553,0.07392 1.3878,-1.134221 0.58315,-1.999904 1.89096,-3.69732 3.53377,-4.586509 1.26805,-0.68634 1.72745,-0.787824 3.57188,-0.789041 2.61175,-0.0017 4.21994,0.684187 5.41536,2.309711 0.68833,0.935979 0.80234,1.32243 0.80234,2.719554 0,2.031595 -0.45836,2.765464 -3.17499,5.083411 -4.421,3.772169 -5.84363,5.383919 -6.59465,7.471299 -0.46136,1.2823 -0.81373,4.42627 -0.63096,5.62963 l 0.1518,0.99942 3.60305,-0.0734 3.60305,-0.0734 0.13862,-2.1241 c 0.10815,-1.65735 0.27501,-2.31564 0.75932,-2.9958 0.79961,-1.12294 4.534102,-4.31416 4.904362,-4.19089 0.18974,0.0632 0.30632,2.5166 0.35348,7.4393 l 0.0704,7.34505 2.2126,-2.09441 c 1.66785,-1.57876 2.82306,-2.40034 4.69212,-3.33701 3.64605,-1.8272 5.87673,-2.33352 10.9462,-2.48456 8.36696,-0.2493 13.75864,1.49097 18.42159,5.94592 2.58795,2.47251 3.82109,4.31548 4.81299,7.19318 0.65416,1.89786 0.77788,2.67196 0.78415,4.90648 0.0161,5.73451 -2.07401,8.99983 -10.44245,16.31393 -4.8366,4.22723 -5.57787,5.00386 -6.45626,6.76423 -0.55132,1.10489 -0.71481,1.89546 -0.83208,4.02364 l -0.14594,2.64858 -4.79079,0.0774 c -2.63494,0.0426 -5.05869,0.0337 -5.38611,-0.0196 -0.57024,-0.0929 -0.59531,-0.20613 -0.59531,-2.68871 0,-7.42146 1.96382,-10.89209 9.92187,-17.53475 5.58603,-4.6627 6.19832,-5.38355 6.90032,-8.12372 0.75108,-2.93177 -0.21485,-5.69447 -2.80528,-8.02348 -2.15875,-1.9409 -3.70214,-2.4205 -7.7992,-2.42355 -3.35923,-0.002 -3.48428,0.0184 -5.35261,0.89411 -3.15647,1.47949 -5.35968,4.17329 -6.57007,8.03303 -0.4286,1.36673 -0.5509,1.52135 -1.20337,1.52135 -0.69251,0 -4.04857,-0.39408 -5.59322,-0.65678 l -0.72761,-0.12374 v 10.57672 c 0,9.21632 -0.051,10.57672 -0.39613,10.57672 -0.21787,0 -1.140612,-0.5485 -2.050522,-1.21888 -3.0803,-2.26943 -6.10433,-3.47994 -10.55078,-4.22344 -3.49437,-0.5843 -9.14739,-0.4029 -12.35438,0.39643 -6.95042,1.73239 -12.48806,6.39201 -14.97282,12.59882 -0.64616,1.61407 -1.45601,5.52839 -1.19579,5.77972 0.26019,0.25131 11.43304,1.51165 11.60283,1.30885 0.10208,-0.12194 0.40075,-0.93609 0.6637,-1.80921 1.40831,-4.67623 4.16999,-7.46463 8.37473,-8.45575 5.3465,-1.26024 10.72414,0.66207 12.67831,4.53204 0.86832,1.71957 1.04455,4.64265 0.38417,6.37184 -0.61673,1.61489 -1.87981,2.94674 -6.33852,6.68364 -8.42942,7.0648 -10.18646,10.16511 -10.18646,17.9741 v 3.18892 h 5.82083 5.82084 v -1.80349 c 0,-2.13486 0.42515,-4.63622 0.96566,-5.68146 0.59287,-1.14649 2.08261,-2.69403 4.98746,-5.18098 1.45521,-1.24585 3.38541,-2.9683 4.28933,-3.82766 1.06871,-1.01602 1.785862,-1.50785 2.050522,-1.40629 0.35603,0.13662 0.40702,1.36717 0.40702,9.82178 0,5.31608 0.0527,9.6656 0.11717,9.6656 0.0644,0 0.51093,-0.23208 0.99219,-0.51573 2.17843,-1.28395 6.8047,-1.72699 9.82333,-0.94074 4.54199,1.18304 7.39347,4.37284 7.40561,8.28426 0.009,2.99596 -1.07124,4.71571 -5.13407,8.17118 -2.77528,2.3604 -3.16059,2.90329 -3.53136,4.97565 l -0.28428,1.58892 h -2.37919 -2.37919 l 0.0168,-1.98437 c 0.0235,-2.77634 0.67705,-4.11767 3.08144,-6.3246 4.37412,-4.0149 4.91579,-4.6164 5.11515,-5.68022 0.28202,-1.50483 -0.51179,-3.24201 -1.94016,-4.24591 -0.89987,-0.63245 -1.46983,-0.81249 -2.85061,-0.90041 -3.03981,-0.19356 -4.96395,0.97074 -6.31302,3.82 -0.5679,1.19944 -0.80023,1.45556 -1.22062,1.34562 -0.51207,-0.13391 -0.51921,0.10761 -0.51921,17.56654 0,15.59548 -0.0474,17.70231 -0.39872,17.70231 -0.35199,0 -0.39076,-2.10109 -0.33073,-17.92552 z m 1.05828,0.52917 0.068,-17.39636 0.59721,0.0212 c 0.46856,0.0166 0.65231,-0.18338 0.85295,-0.92851 0.39749,-1.47619 1.5752,-3.08655 2.7333,-3.73744 1.4126,-0.79393 4.1757,-0.82696 5.64727,-0.0675 1.59121,0.82119 2.27917,2.02944 2.14024,3.75889 -0.12619,1.57098 0.3753,0.97565 -5.06086,6.00783 -2.2154,2.05076 -3.0213,3.70916 -3.25119,6.6903 l -0.16548,2.14586 h 3.0457 3.0457 l 0.13465,-1.67741 c 0.16711,-2.08185 0.48586,-2.5718 3.11869,-4.79359 4.20352,-3.54728 5.54332,-5.63246 5.54777,-8.63414 0.009,-5.76316 -6.57375,-10.11889 -13.63299,-9.02142 -1.12015,0.17415 -2.57146,0.55321 -3.22512,0.84235 -0.65366,0.28915 -1.2946,0.46014 -1.42431,0.37998 -0.13137,-0.0812 -0.23583,-4.61324 -0.23583,-10.23219 v -10.08643 l -2.315102,2.24425 c -1.27331,1.23434 -3.50573,3.2615 -4.96093,4.5048 -3.10755,2.65504 -4.40613,4.04107 -5.14734,5.49395 -0.5565,1.09083 -1.05591,3.80011 -1.06513,5.77828 l -0.005,1.12448 h -5.29997 c -4.7393,0 -5.31819,-0.0475 -5.47217,-0.44875 -0.0947,-0.24681 -0.0437,-2.00298 0.11329,-3.9026 0.5631,-6.81236 2.10878,-9.3827 9.20364,-15.30492 4.82673,-4.02897 6.18259,-5.41526 7.04089,-7.19894 1.713,-3.55986 0.43692,-7.77216 -3.08953,-10.19842 -3.30807,-2.27601 -8.58325,-2.61071 -12.47712,-0.79166 -3.0356,1.41811 -5.2823,4.18876 -6.4384,7.9399 -0.36694,1.19059 -0.56741,1.47543 -1.07769,1.53121 -0.3448,0.0377 -2.77002,-0.20528 -5.3894,-0.53993 l -4.7625,-0.60847 0.0492,-1.44444 c 0.19976,-5.86862 5.77197,-12.71798 12.43684,-15.28734 3.02796,-1.1673 5.92681,-1.63522 10.13044,-1.63522 7.47212,0 12.88449,1.776 17.06998,5.6013 l 1.456282,1.33096 v -10.99114 c 0,-6.04513 0.0942,-11.04938 0.20943,-11.12057 0.11518,-0.0712 1.3951,0.0385 2.84427,0.24382 4.22318,0.59826 3.94598,0.6904 4.61697,-1.53468 1.11245,-3.68904 3.29962,-6.43612 6.17086,-7.75062 3.13438,-1.43497 7.83742,-1.4244 10.90012,0.0245 3.13712,1.48409 5.11728,4.79202 4.82146,8.05439 -0.26844,2.96037 -1.37786,4.32831 -7.86727,9.70053 -1.23693,1.02398 -3.20528,2.87273 -4.37413,4.10833 -3.46708,3.66511 -4.53488,6.4614 -4.80609,12.58579 l -0.15524,3.50573 h 5.95735 5.95735 l 0.11428,-2.98547 c 0.0909,-2.37359 0.23359,-3.23194 0.69643,-4.18803 0.62189,-1.28466 2.95242,-3.63098 8.06549,-8.12011 6.63219,-5.82289 8.90642,-9.6527 8.91433,-15.01174 0.0112,-7.57156 -5.70414,-14.61011 -14.01977,-17.26567 -3.31303,-1.058 -4.76478,-1.24381 -9.525,-1.21909 -4.07922,0.0212 -4.93132,0.10437 -7.16058,0.69912 -3.74877,1.00013 -6.97413,2.71978 -9.52106,5.07629 -1.87385,1.73375 -1.8392,1.85331 -1.8392,-6.34538 v -7.291336 l -2.579682,2.220696 c -3.40367,2.93001 -4.01936,3.82279 -4.25069,6.16377 l -0.18109,1.83258 h -3.175 -3.175 l -0.084,-1.17806 c -0.12496,-1.753 0.42941,-4.47663 1.19898,-5.89059 0.67122,-1.23325 2.64029,-3.245122 6.37469,-6.51327 2.37806,-2.081155 3.06278,-3.315315 2.90369,-5.233739 -0.14873,-1.793523 -1.11874,-3.277691 -2.78068,-4.254605 -1.15613,-0.679588 -1.486,-0.742229 -3.90853,-0.742229 -2.42436,0 -2.75184,0.06231 -3.91222,0.744389 -1.39616,0.820675 -2.8703,2.655005 -3.38361,4.210363 -0.1826,0.553271 -0.4612,1.11074 -0.61913,1.23882 -0.32419,0.262931 -5.9762,-0.399733 -6.31711,-0.740643 -0.11831,-0.118303 -0.074,-0.798296 0.0984,-1.511096 1.0028,-4.145496 4.45534,-7.604045 8.91026,-8.925779 4.30353,-1.276815 10.77981,-0.489832 13.827452,1.68028 0.40593,0.289047 0.80897,0.525541 0.89565,0.525541 0.0867,0 0.15759,-4.28625 0.15759,-9.525 0,-8.290278 0.0515,-9.525 0.39688,-9.525 0.34573,0 0.39687,1.279742 0.39687,9.930179 0,10.993492 0.0293,10.822644 -1.64069,9.570256 -2.317932,-1.738299 -5.256692,-2.567102 -9.102402,-2.567102 -4.43525,0 -7.54643,1.139736 -10.16827,3.724998 -1.52267,1.501435 -2.70907,3.575182 -3.03184,5.299492 l -0.17871,0.954699 2.35544,0.302072 c 1.29549,0.16614 2.48747,0.302073 2.64885,0.302073 0.16138,0 0.58913,-0.645932 0.95056,-1.435404 0.88399,-1.930877 2.53715,-3.663147 4.21636,-4.418107 1.69606,-0.762537 5.28171,-0.858446 6.82619,-0.182589 2.48547,1.087628 3.94951,3.227077 3.94951,5.771516 0,2.39366 -0.5309,3.173911 -4.45543,6.547927 -4.77557,4.105698 -5.71857,5.635708 -5.91167,9.591648 l -0.0839,1.71979 2.54192,0.0753 2.54191,0.0753 0.31426,-1.92735 c 0.3832,-2.35026 1.03629,-3.28114 4.35594,-6.2087 2.934652,-2.588045 3.251532,-2.817771 3.594442,-2.605843 0.1826,0.112851 0.27757,2.610243 0.27757,7.298613 v 7.12705 l 1.65365,-1.34144 c 2.05639,-1.66814 5.70921,-3.46644 8.6651,-4.26588 2.00286,-0.54167 2.8425,-0.60823 7.67292,-0.60823 4.84753,0 5.66297,0.0651 7.67292,0.61294 4.63857,1.26425 7.19739,2.62354 10.2128,5.42521 5.31197,4.93546 7.29786,11.50036 5.33672,17.64205 -1.212,3.79561 -4.08783,7.2235 -11.24555,13.40432 -5.22872,4.51509 -5.62147,5.17606 -5.83086,9.81287 l -0.13442,2.97656 -1.08758,0.0382 c -2.61979,0.0921 -11.17218,0.0959 -11.47247,0.005 -0.24161,-0.0731 -0.32824,-0.96569 -0.32149,-3.31284 0.0243,-8.45119 1.78481,-11.669 10.2917,-18.8106 5.92337,-4.97272 6.69915,-6.02123 6.68178,-9.03084 -0.0152,-2.63567 -1.18922,-4.73268 -3.44312,-6.15006 -2.1113,-1.3277 -3.7137,-1.70396 -6.77436,-1.59066 -2.50074,0.0926 -2.86939,0.178 -4.72452,1.09486 -2.97791,1.47176 -4.66405,3.68247 -5.77701,7.57432 -0.26792,0.93684 -0.58479,1.80101 -0.70416,1.92039 -0.11938,0.11937 -1.57256,0.0383 -3.22929,-0.18025 -1.65673,-0.21851 -3.1091,-0.39729 -3.2275,-0.39729 -0.11839,0 -0.21526,5.06015 -0.21526,11.24479 0,10.13465 -0.0418,11.24479 -0.42363,11.24479 -0.233,0 -1.26574,-0.77966 -2.294982,-1.73258 -4.43421,-4.1054 -10.41613,-5.94415 -18.18347,-5.58932 -4.00284,0.18286 -6.64853,0.82959 -9.92187,2.42534 -5.2015,2.53574 -8.78914,6.85306 -10.19195,12.26486 -0.31345,1.20926 -0.49904,2.26953 -0.41242,2.35616 0.17831,0.1783 9.49359,1.37602 9.64223,1.23975 0.0529,-0.0485 0.36854,-0.86762 0.70142,-1.82026 1.76616,-5.05444 5.13543,-7.94297 10.11077,-8.66814 4.35761,-0.63512 8.42598,0.53065 11.01447,3.15614 1.83482,1.86105 2.39771,3.19156 2.50883,5.93012 0.15976,3.9374 -0.56972,5.04239 -6.81778,10.32735 -8.30527,7.02506 -9.70208,9.28183 -10.00215,16.16006 l -0.14717,3.37344 h 4.80052 4.80052 l 0.004,-1.65365 c 0.006,-2.45391 0.59004,-4.53429 1.74219,-6.20716 0.58013,-0.84232 2.48578,-2.7384 4.4618,-4.43938 1.89704,-1.633 4.44141,-3.93882 5.65414,-5.12404 1.212742,-1.18522 2.373602,-2.15494 2.579692,-2.15494 0.31676,0 0.37471,1.57985 0.37471,10.21477 0,9.61992 0.027,10.20437 0.46303,10.03634 2.32246,-0.89493 6.49762,-1.18998 9.1151,-0.64414 3.4312,0.71553 6.64551,3.09908 8.04974,5.96924 0.56795,1.16085 0.70081,1.81438 0.71167,3.50067 0.0218,3.38723 -1.11517,5.16416 -6.08423,9.50875 -1.19046,1.04086 -2.23905,2.12742 -2.33019,2.41458 -0.0911,0.28716 -0.24822,1.27013 -0.34906,2.18439 l -0.18335,1.66228 -2.91041,0.077 c -4.41067,0.11663 -4.19485,0.26613 -4.04609,-2.8027 0.19449,-4.01215 1.0523,-5.44234 5.53135,-9.22214 2.28945,-1.93203 3.01382,-3.09686 2.7378,-4.40255 -0.36894,-1.7453 -2.04084,-2.83187 -4.3574,-2.83187 -2.4986,0 -4.32059,1.51381 -5.01551,4.16719 -0.22017,0.84063 -0.42551,1.12448 -0.81348,1.12448 -0.5102,0 -0.51897,0.28817 -0.51897,17.06563 0,15.02923 -0.0476,17.06562 -0.39877,17.06562 -0.35196,0 -0.39079,-2.04234 -0.33073,-17.39635 z m 3.22896,4.88733 c -0.0747,-0.19474 -0.10213,-1.7759 -0.0609,-3.51367 l 0.075,-3.1596 3.51346,-0.0739 3.51346,-0.0739 -0.0739,3.51346 -0.0739,3.51347 -3.37869,0.0741 c -2.63038,0.0577 -3.40879,-0.004 -3.51456,-0.27999 z m 6.49638,-3.36598 v -2.91042 h -2.91042 -2.91042 v 2.91042 2.91042 h 2.91042 2.91042 z m -5.23693,2.42627 c -0.24595,-0.16005 -0.32033,-0.8485 -0.26458,-2.44893 l 0.0775,-2.2263 2.45746,-0.0762 2.45746,-0.0762 -0.0762,2.45745 -0.0762,2.45746 -2.11667,0.0677 c -1.16416,0.0372 -2.27062,-0.0325 -2.4588,-0.15495 z m 4.12454,-2.36012 -0.0782,-1.78594 -1.78593,-0.0782 -1.78594,-0.0782 v 1.86417 1.86417 h 1.86417 1.86417 z M 76.496908,207.78134 c -0.25203,-0.0843 -0.33073,-1.58609 -0.33073,-6.31107 v -6.20044 l 6.28386,0.0709 6.28385,0.0709 0.071,6.15156 c 0.0662,5.73216 0.0391,6.15184 -0.39688,6.1556 -0.25734,0.002 -2.96821,0.0421 -6.02414,0.0886 -3.05594,0.0465 -5.70508,0.0348 -5.88698,-0.0261 z m 11.77922,-6.21808 -0.0714,-5.6224 -5.75469,-0.0713 -5.75468,-0.0713 v 5.6937 5.6937 h 5.82609 5.8261 z m -11.05162,-0.0662 v -5.15937 h 5.29167 5.29167 v 5.15937 5.15938 h -5.29167 -5.29167 z m 9.89234,4.16719 c 0.0761,-0.25466 0.12467,-2.33826 0.10787,-4.63021 l -0.0306,-4.16719 h -4.68598 -4.68597 l -0.0489,4.36723 c -0.0269,2.40197 0.0242,4.48557 0.11364,4.63021 0.0973,0.15744 1.95419,0.26298 4.627,0.26298 4.02276,0 4.47817,-0.0458 4.60289,-0.46302 z m 26.536812,-32.51686 c -0.0997,-0.0997 -0.18123,-2.95936 -0.18123,-6.35484 v -6.17361 h 6.2225 6.22249 l -0.0709,6.28385 -0.0709,6.28385 -5.97033,0.071 c -3.28368,0.0391 -6.05188,-0.0106 -6.15156,-0.11024 z m 11.72502,-6.31075 v -5.68854 h -5.68854 -5.68855 v 5.68854 5.68855 h 5.68855 5.68854 z m -10.66587,5.25323 c -0.10013,-0.10012 -0.18205,-2.48392 -0.18205,-5.29732 v -5.11528 h 5.16497 5.16497 l -0.0717,5.22552 -0.0717,5.22552 -4.91119,0.0718 c -2.70115,0.0395 -4.9931,-0.0101 -5.09322,-0.11024 z m 9.60754,-5.25323 v -4.6302 h -4.63021 -4.63021 v 4.6302 4.63021 h 4.63021 4.63021 z M 87.014098,116.96269 v -4.24677 l 4.16719,0.0729 4.16718,0.0729 v 4.10105 4.10104 l -4.16718,0.0729 -4.16719,0.0729 z m 7.67291,0 v -3.70417 h -3.57187 -3.57188 v 3.70417 3.70416 h 3.57188 3.57187 z m -6.61458,0 v -3.175 h 3.04271 3.04271 v 3.175 3.175 h -3.04271 -3.04271 z m 5.55625,-0.1323 v -2.51354 h -2.51354 -2.51354 v 2.51354 2.51355 h 2.51354 2.51354 z"
       id="path1" /></g></svg>
